<?xml version="1.0" encoding="UTF-8" standalone="no"?>
<!-- Created with Inkscape (http://www.inkscape.org/) -->

<svg
   xmlns:dc="http://purl.org/dc/elements/1.1/"
   xmlns:cc="http://creativecommons.org/ns#"
   xmlns:rdf="http://www.w3.org/1999/02/22-rdf-syntax-ns#"
   xmlns:svg="http://www.w3.org/2000/svg"
   xmlns="http://www.w3.org/2000/svg"
   xmlns:sodipodi="http://sodipodi.sourceforge.net/DTD/sodipodi-0.dtd"
   xmlns:inkscape="http://www.inkscape.org/namespaces/inkscape"
   width="128.03738mm"
   height="25.047218mm"
   viewBox="0 0 453.67577 88.749986"
   id="svg2"
   version="1.1"
   inkscape:version="0.91 r13725"
   sodipodi:docname="mnst_white.svg">
  <sodipodi:namedview
     id="base"
     pagecolor="#888888"
     bordercolor="#666666"
     borderopacity="1.0"
     inkscape:pageopacity="1"
     inkscape:pageshadow="2"
     inkscape:zoom="1.1362319"
     inkscape:cx="258.00475"
     inkscape:cy="-61.603951"
     inkscape:document-units="px"
     inkscape:current-layer="layer1"
     showgrid="false"
     inkscape:window-width="1920"
     inkscape:window-height="1021"
     inkscape:window-x="0"
     inkscape:window-y="0"
     inkscape:window-maximized="1"
     fit-margin-top="0"
     fit-margin-left="0"
     fit-margin-right="0"
     fit-margin-bottom="0" />
  <defs
     id="defs4" />
  <metadata
     id="metadata7">
    <rdf:RDF>
      <cc:Work
         rdf:about="">
        <dc:format>image/svg+xml</dc:format>
        <dc:type
           rdf:resource="http://purl.org/dc/dcmitype/StillImage" />
        <dc:title></dc:title>
      </cc:Work>
    </rdf:RDF>
  </metadata>
  <g
     id="layer1"
     inkscape:groupmode="layer"
     inkscape:label="Layer 1"
     transform="translate(-128.14251,-528.68752)">
    <g
       id="g3345">
      <path
         style="fill:#ffffff;fill-opacity:1"
         d="m 128.14251,616.08816 c 0,-1.41511 23.46164,-40.49007 39.88874,-66.43402 5.21744,-8.24011 11.07358,-16.15918 13.01365,-17.59792 3.41011,-2.52893 5.08284,-2.62774 50.3125,-2.97188 27.01372,-0.20554 46.78511,0.1175 46.78511,0.76442 0,0.61622 -4.38088,8.08891 -9.73528,16.60598 -5.35441,8.51707 -16.676,26.91015 -25.15909,40.87351 -8.4831,13.96336 -16.61785,26.13566 -18.07722,27.04955 -3.0761,1.92633 -20.77841,3.85973 -20.77841,2.26937 0,-1.04361 23.0379,-39.43622 36.01526,-60.01935 l 6.50187,-10.3125 -8.50107,0 -8.50107,0 -12.87053,21.19258 c -13.70105,22.5601 -17.15995,26.9102 -23.54181,29.60742 -3.81595,1.61277 -16.60265,2.42607 -16.60265,1.05602 0,-0.54309 24.13802,-40.36711 29.72612,-49.04352 l 1.8114,-2.8125 -8.58126,0.0103 -8.58126,0.0103 -2.6186,4.67719 c -3.71696,6.63915 -28.71094,47.30672 -33.27609,54.14345 -5.44942,8.16103 -10.23365,11.03818 -19.48843,11.71999 -5.09052,0.37503 -7.74188,0.10507 -7.74188,-0.78829 z m 117.5,0.61713 c 0,-1.17959 50.99587,-85.27237 53.18004,-87.69447 0.63127,-0.70005 64.23555,-0.14943 66.11652,0.57237 0.9485,0.36397 2.41195,2.3213 3.2521,4.34962 1.34383,3.24428 1.14693,4.4215 -1.63709,9.78756 -1.74055,3.35485 -5.65836,9.95177 -8.70622,14.65984 -3.04788,4.70806 -11.27695,17.93888 -18.28685,29.40182 -14.86485,24.30777 -18.39675,27.97586 -28.10511,29.18884 -11.00622,1.37513 -11.63413,0.18184 -5.28812,-10.04951 5.01458,-8.08473 35.33713,-57.55463 36.57382,-59.66854 0.30165,-0.51562 -7.0304,-0.9375 -16.29345,-0.9375 l -16.8419,0 -3.05985,5.3125 c -13.1341,22.80334 -36.25424,58.32629 -39.86245,61.24665 -3.51444,2.84447 -5.87248,3.59688 -12.6794,4.04577 -4.59912,0.30329 -8.36204,0.20656 -8.36204,-0.21495 z m 270.49598,-0.59873 c -0.33968,-0.54962 1.63432,-4.31543 4.38668,-8.36846 2.75236,-4.05303 4.65252,-7.72093 4.22256,-8.15089 -0.42996,-0.42996 0.40233,-2.04515 1.84953,-3.58932 1.4472,-1.54416 5.67681,-8.71382 9.39915,-15.93257 l 6.76787,-13.125 5.59371,0.39367 c 3.92448,0.2762 6.07813,-0.19007 7.21716,-1.5625 2.47484,-2.982 3.899,-2.33363 2.56736,1.16883 -1.04085,2.73763 -0.84332,3.14335 1.59344,3.27303 1.52986,0.0814 3.22042,0.0757 3.75681,-0.0126 0.53638,-0.0883 2.78638,0.81638 5,2.01047 2.21361,1.19409 5.14975,2.22854 6.52475,2.29878 8.96086,0.45771 8.9605,0.455 0.625,4.73203 -12.6618,6.49691 -16.04665,8.73267 -17.59176,11.61972 -0.78838,1.47311 -2.77775,3.39784 -4.42083,4.27719 -1.64307,0.87934 -2.98741,2.11816 -2.98741,2.75292 0,0.63477 -1.12638,2.58607 -2.50306,4.33624 -2.14845,2.73132 -2.24669,3.37904 -0.69342,4.57216 0.99531,0.76452 2.18164,2.93286 2.63632,4.81853 0.68473,2.8399 0.32095,3.62554 -2.11909,4.57634 -3.57416,1.39272 -30.95638,1.31649 -31.82477,-0.0886 z m -175.26522,-4.93458 c 1.58989,-2.82884 4.7392,-6.76634 6.99848,-8.75 l 4.10775,-3.60666 42.80337,0 c 48.55806,0 48.35964,0.0359 48.35964,-8.75 0,-7.78717 -2.46682,-8.74873 -22.46564,-8.75697 -20.15581,-0.008 -24.85459,-1.12362 -31.83279,-7.5559 -11.76786,-10.84724 -10.84876,-30.63185 1.85035,-39.83105 2.88378,-2.08899 7.00494,-4.1122 9.15815,-4.49601 2.15322,-0.38382 43.46283,-0.53747 91.79914,-0.34146 l 87.8842,0.35639 -2.5717,2.76023 c -1.41444,1.51813 -2.57171,3.24102 -2.57171,3.82864 0,1.41519 -6.1627,7.11472 -9.60533,8.8834 -1.59165,0.81773 -9.41123,1.41258 -18.75,1.42634 l -16.01967,0.0236 -3.5358,5.91389 c -12.32996,20.62278 -31.54824,51.5585 -34.21924,55.08282 -4.90146,6.46734 -9.93629,8.94604 -18.18246,8.9514 -3.95313,0.003 -7.1875,-0.33908 -7.1875,-0.75923 0,-0.94355 8.66258,-15.3756 27.11911,-45.18107 7.77199,-12.55099 14.13089,-23.09786 14.13089,-23.4375 0,-0.33964 -23.36931,-0.61753 -51.93181,-0.61753 l -51.93183,0 -3.06817,3.06818 c -3.68645,3.68645 -3.8876,6.89182 -0.68124,10.85584 2.28966,2.8307 3.21945,2.97645 22.8125,3.57598 22.06254,0.67509 24.69474,1.37643 31.31449,8.34362 3.6587,3.85072 7.23606,12.55479 7.23606,17.60601 0,9.26871 -6.55238,19.74071 -15.07111,24.08665 -4.57652,2.33476 -7.55135,2.46372 -56.83408,2.46372 l -52.00477,0 2.89072,-5.14334 z"
         id="path3347"
         inkscape:connector-curvature="0" />
    </g>
  </g>
</svg>
